:SAMPLES-PER-SECOND 30
:FULLY-SPECIFIED
:DEGREES
47
root  -26.4979 20.2973 4.07635 -168.263 71.1456 -168.457
RightUpLeg  -84.8751 -3.93647 16.7947
RightLeg  106.344 17.9928 -17.8915
RightFoot  -26.7178 -0.581422 -4.94874
RightToes  1.74622e-010 -3.18055e-015 8.94531e-016
Spine  64.3954 -5.51799 1.04536
Spine1  5.9019 -4.20351 2.73782
HEad  -61.7044 1.59117 13.1586
LeftShoulder1  0 -2.69403e-036 -1.28585e-037
LeftArm  -4.3237 -49.913 -83.2092
LeftForeArm  17.3483 -0.613036 -1.09268
LeftHand  -0.168964 3.00378 14.2929
RightShoulder  -2.48481e-017 0 -8.08114e-019
RightArm  -2.33511 40.9971 80.1517
RightForeArm  0.316167 12.2798 -4.53364
RightHand  1.7381 -11.9338 -11.4723
LeftUpLeg  -35.2044 -14.0489 29.464
LeftLeg  123.728 1.57302 -22.7507
LeftFoot  -26.8038 -1.18762 -9.40749
LeftToes  4.94765e-010 2.02697e-011 4.00889e-011
48
root  -25.6809 19.8827 4.22555 -170.006 70.7248 -171.786
RightUpLeg  -86.2856 -4.07705 17.2696
RightLeg  108.889 19.0908 -18.138
RightFoot  -29.636 -0.655202 -4.58002
RightToes  1.74622e-010 -3.18055e-015 8.94531e-016
Spine  65.4352 -6.04957 2.08162
Spine1  4.29596 -3.80605 2.11033
HEad  -63.177 -0.225514 14.0535
LeftShoulder1  0 -2.69403e-036 -1.28585e-037
LeftArm  -1.62831 -50.052 -85.5683
LeftForeArm  17.1594 -0.944711 -2.23867
LeftHand  -0.269361 2.97245 16.4787
RightShoulder  -2.48481e-017 0 -8.08114e-019
RightArm  -4.83599 42.8556 77.609
RightForeArm  3.70945 10.1973 -3.45151
RightHand  1.75155 -11.9116 -11.8316
LeftUpLeg  -35.2526 -14.3838 30.2551
LeftLeg  123.813 2.30274 -23.6633
LeftFoot  -25.6999 -1.04415 -8.96334
LeftToes  4.94765e-010 2.02697e-011 4.00889e-011
49
root  -24.854 19.5339 4.3665 -171.793 70.44 -175.422
RightUpLeg  -87.6676 -4.08791 17.6496
RightLeg  111.259 20.1151 -18.2614
RightFoot  -32.3474 -0.726364 -4.34966
RightToes  1.74622e-010 -3.18055e-015 8.94531e-016
Spine  66.2015 -6.47684 3.1784
Spine1  2.49667 -3.29078 1.45069
HEad  -64.6344 -2.35135 15.107
LeftShoulder1  0 -2.69403e-036 -1.28585e-037
LeftArm  1.34782 -49.7589 -88.5589
LeftForeArm  17.5767 -1.31802 -3.48462
LeftHand  -0.645436 2.5818 22.129
RightShoulder  -2.48481e-017 0 -8.08114e-019
RightArm  -5.94325 44.4672 74.7162
RightForeArm  5.46507 7.98303 -2.82326
RightHand  1.73728 -11.8152 -11.9478
LeftUpLeg  -35.2854 -14.056 30.7739
LeftLeg  123.611 2.87046 -24.5857
LeftFoot  -24.6408 -0.910331 -8.49115
LeftToes  4.94765e-010 2.02697e-011 4.00889e-011
50
root  -23.9885 19.2295 4.49665 -174.209 70.2412 -179.757
RightUpLeg  -88.7734 -4.01262 17.7951
RightLeg  113.561 21.1645 -18.3896
RightFoot  -34.7375 -0.764847 -4.06477
RightToes  1.74622e-010 -3.18055e-015 8.94531e-016
Spine  66.8406 -6.89689 4.28568
Spine1  0.481374 -2.73526 0.548654
HEad  -66.077 -5.05212 16.1865
LeftShoulder1  0 -2.69403e-036 -1.28585e-037
LeftArm  4.193 -48.3517 -91.4316
LeftForeArm  17.8971 -1.86025 -4.44665
LeftHand  -1.42098 1.63312 29.9116
RightShoulder  -2.48481e-017 0 -8.08114e-019
RightArm  -6.28789 45.7721 71.6117
RightForeArm  5.55984 5.64306 -2.46417
RightHand  1.80466 -12.0387 -12.3536
LeftUpLeg  -34.9031 -13.1704 30.8807
LeftLeg  123.084 3.18459 -25.4588
LeftFoot  -23.7513 -0.813736 -8.19133
LeftToes  4.94765e-010 2.02697e-011 4.00889e-011
51
root  -23.0702 18.9517 4.61608 -177.529 69.9626 175.112
RightUpLeg  -89.6199 -4.10885 17.7217
RightLeg  116.051 22.2227 -18.3156
RightFoot  -36.6272 -0.714866 -3.49283
RightToes  1.74622e-010 -3.18055e-015 8.94531e-016
Spine  67.2033 -7.47177 5.47004
Spine1  -1.27936 -2.22336 -0.875134
HEad  -67.7237 -8.17695 17.1262
LeftShoulder1  0 -2.69403e-036 -1.28585e-037
LeftArm  6.83394 -45.622 -93.4288
LeftForeArm  17.0585 -2.6067 -5.10253
LeftHand  -2.13286 0.828788 35.3346
RightShoulder  -2.48481e-017 0 -8.08114e-019
RightArm  -7.39638 46.6434 67.8587
RightForeArm  4.5728 3.66655 -2.36919
RightHand  1.92462 -12.483 -12.8161
LeftUpLeg  -33.8807 -12.1269 30.5278
LeftLeg  122.148 3.20786 -26.3333
LeftFoot  -23.1412 -0.765169 -8.1595
LeftToes  4.94765e-010 2.02697e-011 4.00889e-011
52
root  -22.0852 18.6744 4.72524 178.598 69.5017 169.596
RightUpLeg  -90.3389 -4.47718 17.6223
RightLeg  118.959 23.2541 -17.8693
RightFoot  -37.8281 -0.537879 -2.51209
RightToes  1.74622e-010 -3.18055e-015 8.94531e-016
Spine  66.9622 -8.06925 6.58555
Spine1  -2.21803 -1.81613 -2.50148
HEad  -69.3418 -11.1694 17.6772
LeftShoulder1  0 -2.69403e-036 -1.28585e-037
LeftArm  11.0205 -42.1992 -94.6309
LeftForeArm  14.5901 -7.91825 -3.91044
LeftHand  -2.34481 0.582394 36.6238
RightShoulder  -2.48481e-017 0 -8.08114e-019
RightArm  -8.93983 47.2851 63.882
RightForeArm  2.78058 2.35066 -2.43709
RightHand  1.97004 -12.7329 -12.6645
LeftUpLeg  -32.099 -11.2564 29.8315
LeftLeg  120.743 2.93963 -27.2916
LeftFoot  -23.0893 -0.784274 -8.42912
LeftToes  4.94765e-010 2.02697e-011 4.00889e-011
53
root  -21.0308 18.3846 4.81883 174.844 68.819 164.465
RightUpLeg  -90.677 -5.14598 17.7523
RightLeg  122.173 24.259 -17.1785
RightFoot  -38.4317 -0.229391 -1.07722
RightToes  1.74622e-010 -3.18055e-015 8.94531e-016
Spine  66.3942 -8.53332 7.38366
Spine1  -2.63623 -1.64891 -3.59143
HEad  -70.3069 -13.4223 17.6331
LeftShoulder1  0 -2.69403e-036 -1.28585e-037
LeftArm  19.2979 -38.6566 -95.537
LeftForeArm  7.47856 -13.6847 -1.21332
LeftHand  -2.31124 0.610899 36.3574
RightShoulder  -2.48481e-017 0 -8.08114e-019
RightArm  -9.55042 48.0517 61.5975
RightForeArm  0.900145 0.969963 -2.06118
RightHand  2.11902 -13.2417 -13.2916
LeftUpLeg  -29.6547 -10.8208 29.0686
LeftLeg  118.939 2.40097 -28.3215
LeftFoot  -23.5426 -0.860363 -8.88918
LeftToes  4.94765e-010 2.02697e-011 4.00889e-011
54
root  -19.9278 18.0913 4.90671 171.654 67.8115 160.169
RightUpLeg  -90.4009 -6.18335 18.2378
RightLeg  125.314 25.318 -16.5833
RightFoot  -38.774 0.191739 0.78729
RightToes  1.74622e-010 -3.18055e-015 8.94531e-016
Spine  66.162 -8.98338 7.69385
Spine1  -3.44585 -2.02874 -3.74183
HEad  -70.4645 -14.2965 17.1504
LeftShoulder1  0 -2.69403e-036 -1.28585e-037
LeftArm  25.65 -34.7573 -95.5152
LeftForeArm  1.50428 -17.229 1.81529
LeftHand  -2.41288 0.506845 37.0392
RightShoulder  -2.48481e-017 0 -8.08114e-019
RightArm  -8.46738 48.4937 62.7004
RightForeArm  -0.493424 -0.908089 -1.05448
RightHand  2.79792 -14.8601 -17.3588
LeftUpLeg  -27.1676 -10.9977 28.4461
LeftLeg  117.016 1.67462 -29.2654
LeftFoot  -23.8621 -0.93543 -9.42155
LeftToes  4.94765e-010 2.02697e-011 4.00889e-011
55
root  -18.7863 17.7972 5.02273 169.049 66.3168 156.505
RightUpLeg  -89.7535 -7.57264 19.1189
RightLeg  128.052 26.7097 -16.5107
RightFoot  -39.0254 0.689278 2.94233
RightToes  1.74622e-010 -3.18055e-015 8.94531e-016
Spine  66.2279 -9.43143 7.31956
Spine1  -4.71894 -3.13611 -2.8304
HEad  -70.2964 -13.3827 16.7172
LeftShoulder1  0 -2.69403e-036 -1.28585e-037
LeftArm  32.4205 -30.0016 -94.0337
LeftForeArm  -5.98374 -20.7085 6.96394
LeftHand  -2.58255 0.296723 37.8907
RightShoulder  -2.48481e-017 0 -8.08114e-019
RightArm  -6.89548 47.4325 66.3802
RightForeArm  -0.78357 -1.47159 -0.588353
RightHand  4.14018 -17.1623 -24.529
LeftUpLeg  -25.3137 -11.7356 27.9199
LeftLeg  115.223 0.856085 -29.9618
LeftFoot  -23.6165 -0.96886 -10.0272
LeftToes  4.94765e-010 2.02697e-011 4.00889e-011
